<svg width="1000" height="1000" viewBox="0 0 1000 1000" xmlns="http://www.w3.org/2000/svg"><defs/><path fill="#252725" transform="matrix(1.2169915532920448 0 0 1.2169915532920448 0.2894547820338894 -5.902170249543614)" d="M 357.86135047833 169.50456229365 C 356.76135047833 169.10456229365 355.56135047833 168.70456229365 354.46135047833 168.30456229365 C 353.26135047833 168.00456229365 352.16135047833 167.70456229365 350.86135047833 167.50456229365 C 348.46135047833 167.10456229365 345.96135047833 166.80456229365 343.36135047833 166.70456229365 C 338.26135047833 166.70456229365 332.96135047833 167.30456229365 327.86135047833 168.90456229365 L 327.86135047833 168.90456229365 C 332.56135047833 166.40456229365 337.26135047833 163.80456229365 341.46135047833 160.70456229365 C 343.66135047833 159.20456229365 345.66135047833 157.70456229365 347.66135047833 156.00456229365 C 348.66135047833 155.20456229365 349.56135047833 154.30456229365 350.56135047833 153.40456229365 C 351.46135047833 152.60456229365 352.46135047833 151.70456229365 353.36135047833 150.80456229365 C 360.46135047833 143.40456229365 364.56135047833 136.00456229365 365.16135047833 128.60456229365 C 353.26135047833 131.50456229365 342.76135047833 137.80456229365 335.76135047833 145.60456229365 C 332.36135047833 149.60456229365 330.06135047833 153.60456229365 328.76135047833 157.60456229365 C 327.56135047833 161.60456229365 327.26135047833 165.40456229365 327.86135047833 169.00456229365 L 327.36135047833 167.80456229365 L 323.46135047833 169.40456229365 C 322.16135047833 169.90456229365 320.86135047833 170.50456229365 319.56135047833 171.10456229365 L 315.66135047833 172.80456229365 C 314.36135047833 173.40456229365 313.06135047833 174.00456229365 311.86135047833 174.60456229365 L 304.26135047833 178.50456229365 L 296.86135047833 182.70456229365 C 296.26135047833 183.00456229365 295.76135047833 183.40456229365 295.26135047833 183.70456229365 C 301.06135047833 178.30456229365 306.26135047833 172.50456229365 310.26135047833 165.90456229365 C 312.96135047833 161.70456229365 314.96135047833 157.40456229365 316.06135047833 153.30456229365 C 317.26135047833 149.30456229365 317.66135047833 145.40456229365 317.16135047833 141.80456229365 C 311.66135047833 144.40456229365 306.66135047833 148.00456229365 302.36135047833 151.70456229365 C 298.16135047833 155.70456229365 294.46135047833 159.80456229365 292.06135047833 164.50456229365 C 290.76135047833 166.80456229365 289.76135047833 169.00456229365 289.06135047833 171.20456229365 C 288.36135047833 173.40456229365 287.96135047833 175.60456229365 287.76135047833 177.60456229365 C 287.36135047833 181.30456229365 287.86135047833 184.60456229365 288.86135047833 187.70456229365 C 282.16135047833 192.20456229365 275.66135047833 197.00456229365 269.46135047833 202.20456229365 C 266.46135047833 204.70456229365 263.56135047833 207.30456229365 260.66135047833 210.00456229365 C 261.36135047833 209.00456229365 261.96135047833 208.00456229365 262.66135047833 207.00456229365 C 263.36135047833 205.90456229365 264.16135047833 204.80456229365 264.76135047833 203.70456229365 C 266.16135047833 201.50456229365 267.36135047833 199.10456229365 268.46135047833 196.80456229365 C 269.66135047833 194.50456229365 270.66135047833 192.20456229365 271.46135047833 189.70456229365 C 271.86135047833 188.50456229365 272.26135047833 187.30456229365 272.56135047833 186.10456229365 C 272.96135047833 185.00456229365 273.26135047833 183.80456229365 273.46135047833 182.70456229365 C 273.96135047833 180.50456229365 274.36135047833 178.30456229365 274.46135047833 176.20456229365 C 274.56135047833 174.10456229365 274.56135047833 172.10456229365 274.36135047833 170.10456229365 C 274.16135047833 168.20456229365 273.76135047833 166.40456229365 273.16135047833 164.70456229365 C 271.96135047833 165.60456229365 270.76135047833 166.60456229365 269.66135047833 167.60456229365 C 268.56135047833 168.60456229365 267.46135047833 169.70456229365 266.46135047833 170.70456229365 C 265.46135047833 171.80456229365 264.46135047833 172.90456229365 263.46135047833 174.00456229365 C 262.56135047833 175.10456229365 261.66135047833 176.30456229365 260.76135047833 177.50456229365 C 259.06135047833 179.90456229365 257.56135047833 182.20456229365 256.26135047833 184.70456229365 C 255.06135047833 187.20456229365 254.06135047833 189.70456229365 253.26135047833 192.20456229365 C 252.86135047833 193.40456229365 252.56135047833 194.70456229365 252.26135047833 195.90456229365 C 252.06135047833 197.10456229365 251.86135047833 198.30456229365 251.76135047833 199.50456229365 C 251.56135047833 201.80456229365 251.56135047833 204.00456229365 251.76135047833 206.10456229365 C 251.96135047833 208.20456229365 252.46135047833 210.10456229365 253.06135047833 211.90456229365 C 253.56135047833 213.30456229365 254.16135047833 214.60456229365 254.86135047833 215.80456229365 C 251.56135047833 219.20456229365 248.36135047833 222.60456229365 245.26135047833 226.20456229365 C 240.46135047833 231.70456229365 236.06135047833 237.50456229365 231.86135047833 243.50456229365 C 232.86135047833 241.20456229365 233.76135047833 238.80456229365 234.56135047833 236.40456229365 C 235.46135047833 233.90456229365 236.26135047833 231.50456229365 236.86135047833 228.90456229365 C 237.16135047833 227.60456229365 237.36135047833 226.40456229365 237.66135047833 225.10456229365 C 237.96135047833 223.90456229365 238.16135047833 222.60456229365 238.36135047833 221.40456229365 C 238.76135047833 218.90456229365 238.96135047833 216.50456229365 238.96135047833 214.10456229365 C 238.96135047833 211.80456229365 238.96135047833 209.60456229365 238.66135047833 207.50456229365 C 238.06135047833 203.30456229365 236.86135047833 199.60456229365 234.96135047833 196.50456229365 C 227.06135047833 205.80456229365 222.26135047833 217.10456229365 221.16135047833 227.50456229365 C 220.76135047833 232.80456229365 221.26135047833 237.40456229365 222.56135047833 241.30456229365 C 223.76135047833 244.80456229365 225.46135047833 247.70456229365 227.66135047833 250.10456229365 C 226.96135047833 251.30456229365 226.16135047833 252.40456229365 225.46135047833 253.60456229365 C 219.86135047833 262.70456229365 215.06135047833 272.30456229365 210.86135047833 282.20456229365 C 212.36135047833 274.40456229365 213.16135047833 266.60456229365 212.56135047833 259.00456229365 C 212.26135047833 254.00456229365 211.36135047833 249.40456229365 209.96135047833 245.40456229365 C 208.56135047833 241.50456229365 206.66135047833 238.10456229365 204.06135047833 235.50456229365 C 203.36135047833 236.80456229365 202.66135047833 238.20456229365 202.06135047833 239.60456229365 C 201.46135047833 241.00456229365 200.96135047833 242.40456229365 200.36135047833 243.80456229365 C 199.36135047833 246.60456229365 198.46135047833 249.40456229365 197.86135047833 252.20456229365 C 196.76135047833 257.90456229365 196.26135047833 263.40456229365 196.96135047833 268.70456229365 C 197.26135047833 271.30456229365 197.76135047833 273.70456229365 198.46135047833 275.90456229365 C 199.16135047833 278.10456229365 200.16135047833 280.10456229365 201.16135047833 281.90456229365 C 203.06135047833 285.10456229365 205.36135047833 287.60456229365 207.96135047833 289.40456229365 C 204.66135047833 298.10456229365 201.96135047833 307.10456229365 199.86135047833 316.20456229365 C 199.26135047833 318.80456229365 198.76135047833 321.40456229365 198.16135047833 324.10456229365 C 198.16135047833 322.90456229365 198.06135047833 321.70456229365 197.96135047833 320.50456229365 C 197.96135047833 319.20456229365 197.86135047833 317.90456229365 197.76135047833 316.60456229365 C 197.56135047833 314.00456229365 197.16135047833 311.40456229365 196.66135047833 308.80456229365 C 196.26135047833 306.30456229365 195.66135047833 303.80456229365 194.96135047833 301.30456229365 C 194.56135047833 300.10456229365 194.16135047833 298.90456229365 193.76135047833 297.70456229365 C 193.36135047833 296.60456229365 192.96135047833 295.50456229365 192.56135047833 294.40456229365 C 191.66135047833 292.30456229365 190.66135047833 290.30456229365 189.56135047833 288.50456229365 C 188.46135047833 286.70456229365 187.16135047833 285.10456229365 185.86135047833 283.60456229365 C 184.56135047833 282.20456229365 183.16135047833 280.90456229365 181.66135047833 279.90456229365 C 181.16135047833 281.40456229365 180.86135047833 282.80456229365 180.56135047833 284.30456229365 C 180.26135047833 285.80456229365 179.96135047833 287.30456229365 179.76135047833 288.70456229365 C 179.56135047833 290.20456229365 179.36135047833 291.60456229365 179.26135047833 293.10456229365 C 179.16135047833 294.60456229365 179.16135047833 296.00456229365 179.16135047833 297.50456229365 C 179.16135047833 300.40456229365 179.36135047833 303.20456229365 179.76135047833 305.90456229365 C 180.26135047833 308.60456229365 180.86135047833 311.30456229365 181.76135047833 313.70456229365 C 183.36135047833 318.60456229365 185.86135047833 322.70456229365 188.66135047833 325.80456229365 C 191.16135047833 328.50456229365 193.86135047833 330.40456229365 196.86135047833 331.80456229365 C 195.96135047833 337.70456229365 195.26135047833 343.70456229365 194.96135047833 349.60456229365 C 194.56135047833 355.60456229365 194.46135047833 361.70456229365 194.56135047833 367.70456229365 C 194.26135047833 366.50456229365 193.96135047833 365.30456229365 193.66135047833 364.20456229365 C 193.26135047833 362.90456229365 192.96135047833 361.70456229365 192.66135047833 360.40456229365 C 191.96135047833 357.90456229365 191.06135047833 355.40456229365 189.96135047833 353.00456229365 C 188.96135047833 350.60456229365 187.96135047833 348.30456229365 186.76135047833 346.00456229365 C 185.56135047833 343.80456229365 184.26135047833 341.70456229365 182.96135047833 339.80456229365 C 181.66135047833 337.90456229365 180.26135047833 336.20456229365 178.86135047833 334.70456229365 C 175.96135047833 331.70456229365 172.76135047833 329.40456229365 169.36135047833 328.00456229365 C 169.26135047833 331.00456229365 169.26135047833 334.10456229365 169.36135047833 337.10456229365 L 169.56135047833 339.30456229365 L 169.86135047833 341.50456229365 C 170.06135047833 343.00456229365 170.36135047833 344.40456229365 170.66135047833 345.80456229365 C 171.76135047833 351.40456229365 173.86135047833 356.70456229365 176.46135047833 361.20456229365 C 181.56135047833 369.70456229365 188.16135047833 374.30456229365 194.86135047833 375.70456229365 C 194.96135047833 378.30456229365 195.16135047833 381.00456229365 195.46135047833 383.60456229365 C 196.36135047833 393.00456229365 197.96135047833 402.30456229365 200.06135047833 411.50456229365 C 196.76135047833 404.30456229365 192.76135047833 397.60456229365 187.86135047833 391.80456229365 C 184.66135047833 387.90456229365 181.16135047833 384.70456229365 177.76135047833 382.30456229365 C 174.36135047833 379.90456229365 170.76135047833 378.40456229365 167.16135047833 377.70456229365 C 167.66135047833 380.70456229365 168.16135047833 383.70456229365 169.06135047833 386.60456229365 C 169.96135047833 389.50456229365 170.86135047833 392.20456229365 172.06135047833 394.90456229365 C 174.56135047833 400.20456229365 177.36135047833 404.90456229365 181.06135047833 408.70456229365 C 182.86135047833 410.60456229365 184.66135047833 412.30456229365 186.46135047833 413.60456229365 C 188.36135047833 415.00456229365 190.26135047833 416.10456229365 192.16135047833 416.90456229365 C 195.56135047833 418.40456229365 198.86135047833 419.00456229365 202.06135047833 419.10456229365 C 205.26135047833 430.80456229365 209.46135047833 442.20456229365 214.46135047833 453.20456229365 C 209.76135047833 446.80456229365 204.46135047833 441.00456229365 198.46135047833 436.30456229365 C 196.46135047833 434.70456229365 194.46135047833 433.30456229365 192.46135047833 432.20456229365 C 190.56135047833 431.00456229365 188.56135047833 430.00456229365 186.66135047833 429.20456229365 C 182.76135047833 427.60456229365 178.96135047833 426.80456229365 175.26135047833 426.90456229365 C 179.46135047833 438.30456229365 186.56135047833 448.20456229365 195.06135047833 454.30456229365 C 203.06135047833 460.00456229365 211.16135047833 461.60456229365 217.86135047833 460.20456229365 C 223.26135047833 470.90456229365 229.56135047833 481.20456229365 236.66135047833 490.80456229365 C 230.76135047833 485.60456229365 224.46135047833 481.00456229365 217.76135047833 477.60456229365 C 213.16135047833 475.40456229365 208.86135047833 473.70456229365 204.76135047833 473.00456229365 C 202.66135047833 472.60456229365 200.66135047833 472.40456229365 198.66135047833 472.40456229365 C 196.76135047833 472.40456229365 194.86135047833 472.60456229365 193.06135047833 473.00456229365 C 199.46135047833 483.30456229365 208.46135047833 491.60456229365 217.96135047833 495.90456229365 C 222.86135047833 498.00456229365 227.26135047833 499.00456229365 231.46135047833 499.00456229365 C 235.16135047833 499.00456229365 238.46135047833 498.30456229365 241.46135047833 497.00456229365 C 243.86135047833 500.00456229365 246.36135047833 503.00456229365 248.96135047833 505.90456229365 C 254.36135047833 512.00456229365 260.16135047833 517.70456229365 266.16135047833 523.20456229365 C 265.16135047833 522.60456229365 264.06135047833 522.00456229365 262.96135047833 521.40456229365 C 261.76135047833 520.80456229365 260.56135047833 520.20456229365 259.46135047833 519.60456229365 C 257.16135047833 518.40456229365 254.76135047833 517.40456229365 252.26135047833 516.50456229365 C 249.86135047833 515.50456229365 247.46135047833 514.70456229365 244.96135047833 514.10456229365 C 235.16135047833 511.40456229365 226.46135047833 511.60456229365 219.86135047833 514.60456229365 C 228.26135047833 523.40456229365 238.66135047833 529.80456229365 248.86135047833 532.00456229365 C 253.96135047833 533.10456229365 258.66135047833 533.10456229365 262.76135047833 532.40456229365 C 266.36135047833 531.70456229365 269.46135047833 530.30456229365 272.16135047833 528.40456229365 C 281.26135047833 536.00456229365 291.06135047833 542.80456229365 301.36135047833 548.60456229365 C 301.46135047833 548.70456229365 301.66135047833 548.70456229365 301.76135047833 548.80456229365 C 294.26135047833 546.40456229365 286.66135047833 544.80456229365 279.16135047833 544.40456229365 C 274.06135047833 544.10456229365 269.46135047833 544.40456229365 265.36135047833 545.40456229365 C 261.26135047833 546.30456229365 257.66135047833 547.80456229365 254.76135047833 550.00456229365 C 264.76135047833 557.00456229365 276.36135047833 561.10456229365 286.86135047833 561.10456229365 C 289.46135047833 561.20456229365 291.96135047833 560.80456229365 294.26135047833 560.40456229365 C 296.56135047833 560.00456229365 298.66135047833 559.30456229365 300.56135047833 558.50456229365 C 303.96135047833 557.10456229365 306.66135047833 555.00456229365 308.86135047833 552.60456229365 C 326.46135047833 561.70456229365 345.46135047833 568.20456229365 365.06135047833 571.50456229365 L 365.46135047833 569.00456229365 C 346.16135047833 565.70456229365 327.46135047833 559.30456229365 310.06135047833 550.40456229365 C 310.76135047833 547.30456229365 310.86135047833 543.90456229365 310.46135047833 540.40456229365 C 310.06135047833 536.40456229365 308.86135047833 532.30456229365 307.16135047833 528.00456229365 C 303.66135047833 519.50456229365 298.36135047833 511.80456229365 291.86135047833 505.20456229365 C 290.16135047833 508.30456229365 288.96135047833 512.00456229365 288.66135047833 515.90456229365 C 288.46135047833 519.80456229365 288.96135047833 524.10456229365 290.56135047833 528.60456229365 C 292.86135047833 535.20456229365 297.36135047833 541.40456229365 303.16135047833 546.60456229365 C 303.06135047833 546.50456229365 302.86135047833 546.50456229365 302.76135047833 546.40456229365 C 292.56135047833 540.60456229365 282.96135047833 533.90456229365 273.96135047833 526.40456229365 C 275.26135047833 523.50456229365 276.16135047833 520.20456229365 276.46135047833 516.80456229365 C 276.86135047833 512.80456229365 276.66135047833 508.50456229365 275.86135047833 503.90456229365 C 274.16135047833 494.80456229365 270.56135047833 486.10456229365 265.56135047833 478.30456229365 C 260.86135047833 483.80456229365 258.26135047833 491.50456229365 259.46135047833 501.00456229365 C 260.36135047833 508.00456229365 263.36135047833 515.00456229365 267.96135047833 521.20456229365 C 261.96135047833 515.90456229365 256.36135047833 510.20456229365 250.96135047833 504.20456229365 C 248.36135047833 501.30456229365 245.96135047833 498.40456229365 243.56135047833 495.40456229365 C 245.46135047833 492.80456229365 246.96135047833 489.80456229365 247.96135047833 486.50456229365 C 249.16135047833 482.70456229365 249.86135047833 478.40456229365 249.96135047833 473.80456229365 C 250.26135047833 464.50456229365 248.36135047833 455.30456229365 245.06135047833 446.60456229365 C 243.66135047833 447.70456229365 242.26135047833 449.00456229365 241.06135047833 450.40456229365 C 239.86135047833 451.80456229365 238.86135047833 453.40456229365 237.86135047833 455.10456229365 C 236.06135047833 458.60456229365 234.76135047833 462.80456229365 234.46135047833 467.50456229365 C 233.96135047833 474.50456229365 235.46135047833 482.00456229365 238.66135047833 489.00456229365 C 231.66135047833 479.50456229365 225.46135047833 469.30456229365 220.06135047833 458.80456229365 C 225.16135047833 454.20456229365 228.76135047833 447.30456229365 230.66135047833 438.90456229365 C 232.76135047833 429.90456229365 232.76135047833 420.50456229365 231.26135047833 411.30456229365 C 228.06135047833 412.90456229365 225.06135047833 415.10456229365 222.56135047833 418.20456229365 C 221.26135047833 419.70456229365 220.16135047833 421.50456229365 219.16135047833 423.40456229365 C 218.16135047833 425.30456229365 217.36135047833 427.40456229365 216.76135047833 429.70456229365 C 214.86135047833 436.40456229365 214.86135047833 443.90456229365 216.46135047833 451.40456229365 C 211.56135047833 440.70456229365 207.46135047833 429.60456229365 204.46135047833 418.30456229365 C 207.26135047833 416.70456229365 209.76135047833 414.50456229365 212.06135047833 411.90456229365 C 213.36135047833 410.40456229365 214.56135047833 408.70456229365 215.66135047833 406.90456229365 C 216.86135047833 405.10456229365 217.96135047833 403.10456229365 218.86135047833 401.00456229365 C 220.66135047833 396.80456229365 222.36135047833 392.40456229365 223.26135047833 387.90456229365 C 223.86135047833 385.60456229365 224.26135047833 383.40456229365 224.56135047833 381.10456229365 C 224.86135047833 378.80456229365 225.16135047833 376.50456229365 225.26135047833 374.20456229365 C 221.76135047833 375.10456229365 218.36135047833 376.70456229365 215.26135047833 379.20456229365 C 212.06135047833 381.70456229365 209.46135047833 385.00456229365 207.16135047833 389.20456229365 C 203.96135047833 395.40456229365 202.36135047833 402.80456229365 202.46135047833 410.50456229365 C 200.36135047833 401.50456229365 198.86135047833 392.40456229365 197.96135047833 383.30456229365 C 197.76135047833 380.70456229365 197.56135047833 378.10456229365 197.36135047833 375.50456229365 C 203.86135047833 373.30456229365 209.96135047833 368.50456229365 215.16135047833 361.50456229365 C 217.96135047833 357.80456229365 220.16135047833 353.80456229365 222.16135047833 349.60456229365 C 222.66135047833 348.60456229365 223.06135047833 347.50456229365 223.56135047833 346.40456229365 L 224.16135047833 344.80456229365 L 224.76135047833 343.20456229365 C 225.56135047833 341.00456229365 226.26135047833 338.80456229365 226.76135047833 336.60456229365 C 223.16135047833 336.70456229365 219.56135047833 337.60456229365 216.06135047833 339.40456229365 C 214.26135047833 340.30456229365 212.56135047833 341.40456229365 210.86135047833 342.80456229365 C 209.16135047833 344.20456229365 207.66135047833 345.80456229365 206.16135047833 347.60456229365 C 204.66135047833 349.40456229365 203.26135047833 351.50456229365 202.06135047833 353.60456229365 C 200.96135047833 355.80456229365 199.96135047833 358.10456229365 199.06135047833 360.50456229365 C 198.66135047833 361.70456229365 198.16135047833 362.90456229365 197.86135047833 364.20456229365 C 197.56135047833 365.30456229365 197.36135047833 366.40456229365 197.16135047833 367.60456229365 C 197.06135047833 361.70456229365 197.16135047833 355.70456229365 197.56135047833 349.80456229365 C 197.86135047833 343.90456229365 198.56135047833 338.00456229365 199.46135047833 332.20456229365 C 202.66135047833 331.80456229365 205.86135047833 330.90456229365 209.06135047833 329.40456229365 C 212.76135047833 327.70456229365 216.16135047833 325.20456229365 219.76135047833 322.20456229365 C 221.56135047833 320.70456229365 223.16135047833 319.10456229365 224.66135047833 317.30456229365 C 226.26135047833 315.60456229365 227.76135047833 313.80456229365 229.06135047833 312.00456229365 C 229.76135047833 311.10456229365 230.36135047833 310.10456229365 231.06135047833 309.20456229365 C 231.76135047833 308.30456229365 232.36135047833 307.30456229365 232.96135047833 306.30456229365 C 233.56135047833 305.30456229365 234.16135047833 304.30456229365 234.66135047833 303.30456229365 C 235.16135047833 302.30456229365 235.66135047833 301.30456229365 236.26135047833 300.20456229365 C 234.46135047833 299.90456229365 232.66135047833 299.70456229365 230.76135047833 299.80456229365 C 228.96135047833 299.90456229365 227.06135047833 300.20456229365 225.16135047833 300.70456229365 C 223.26135047833 301.20456229365 221.36135047833 301.90456229365 219.36135047833 302.90456229365 C 218.36135047833 303.40456229365 217.46135047833 303.90456229365 216.46135047833 304.50456229365 C 215.56135047833 305.10456229365 214.56135047833 305.80456229365 213.66135047833 306.50456229365 C 211.86135047833 308.00456229365 210.06135047833 309.70456229365 208.36135047833 311.50456229365 C 206.66135047833 313.40456229365 205.36135047833 315.40456229365 203.96135047833 317.60456229365 C 203.26135047833 318.70456229365 202.66135047833 319.80456229365 202.06135047833 321.00456229365 C 201.56135047833 322.00456229365 201.06135047833 323.00456229365 200.66135047833 324.10456229365 C 201.16135047833 321.50456229365 201.66135047833 319.00456229365 202.26135047833 316.50456229365 C 204.26135047833 307.50456229365 206.96135047833 298.70456229365 210.26135047833 290.00456229365 C 213.46135047833 290.30456229365 216.86135047833 290.10456229365 220.26135047833 289.20456229365 C 222.26135047833 288.70456229365 224.16135047833 288.10456229365 226.16135047833 287.30456229365 C 228.16135047833 286.50456229365 230.16135047833 285.60456229365 232.26135047833 284.40456229365 C 236.16135047833 282.10456229365 240.16135047833 279.50456229365 243.46135047833 276.40456229365 C 245.16135047833 274.90456229365 246.96135047833 273.30456229365 248.46135047833 271.60456229365 C 249.26135047833 270.80456229365 249.96135047833 269.90456229365 250.76135047833 269.00456229365 C 251.56135047833 268.10456229365 252.26135047833 267.30456229365 253.06135047833 266.40456229365 C 249.76135047833 265.00456229365 246.06135047833 264.40456229365 242.06135047833 264.50456229365 C 238.16135047833 264.70456229365 233.96135047833 265.80456229365 229.66135047833 267.90456229365 C 223.56135047833 271.00456229365 217.86135047833 276.10456229365 213.46135047833 282.30456229365 C 217.56135047833 272.70456229365 222.26135047833 263.40456229365 227.66135047833 254.50456229365 C 228.36135047833 253.30456229365 229.16135047833 252.20456229365 229.86135047833 251.10456229365 C 232.96135047833 252.10456229365 236.26135047833 252.50456229365 239.76135047833 252.40456229365 C 243.76135047833 252.30456229365 248.06135047833 251.60456229365 252.46135047833 250.20456229365 C 261.36135047833 247.50456229365 269.36135047833 242.70456229365 276.56135047833 236.90456229365 C 273.56135047833 234.90456229365 270.16135047833 233.50456229365 266.16135047833 232.80456229365 C 264.26135047833 232.50456229365 262.06135047833 232.30456229365 259.96135047833 232.50456229365 C 257.86135047833 232.60456229365 255.66135047833 233.00456229365 253.26135047833 233.60456229365 C 252.06135047833 233.90456229365 250.96135047833 234.20456229365 249.76135047833 234.60456229365 C 248.56135047833 235.00456229365 247.56135047833 235.50456229365 246.36135047833 236.00456229365 C 244.16135047833 237.10456229365 241.96135047833 238.30456229365 239.76135047833 239.70456229365 C 237.86135047833 241.10456229365 235.96135047833 242.70456229365 234.16135047833 244.30456229365 C 238.26135047833 238.40456229365 242.66135047833 232.80456229365 247.36135047833 227.30456229365 C 250.46135047833 223.80456229365 253.56135047833 220.30456229365 256.86135047833 217.00456229365 C 258.06135047833 217.70456229365 259.26135047833 218.30456229365 260.66135047833 218.80456229365 C 262.46135047833 219.50456229365 264.36135047833 220.00456229365 266.36135047833 220.40456229365 C 268.36135047833 220.80456229365 270.36135047833 221.00456229365 272.56135047833 221.10456229365 C 273.66135047833 221.10456229365 274.66135047833 221.10456229365 275.76135047833 221.10456229365 C 276.86135047833 221.10456229365 278.06135047833 221.00456229365 279.16135047833 220.90456229365 C 281.46135047833 220.70456229365 283.76135047833 220.30456229365 285.96135047833 219.80456229365 C 288.26135047833 219.30456229365 290.46135047833 218.80456229365 292.66135047833 218.10456229365 C 293.76135047833 217.80456229365 294.86135047833 217.40456229365 295.86135047833 217.00456229365 C 296.96135047833 216.60456229365 298.06135047833 216.20456229365 299.16135047833 215.80456229365 C 300.26135047833 215.40456229365 301.26135047833 214.90456229365 302.36135047833 214.40456229365 C 303.36135047833 213.90456229365 304.46135047833 213.40456229365 305.46135047833 212.90456229365 C 304.16135047833 211.60456229365 302.76135047833 210.40456229365 301.26135047833 209.40456229365 C 299.76135047833 208.40456229365 298.06135047833 207.50456229365 296.16135047833 206.80456229365 C 294.36135047833 206.10456229365 292.36135047833 205.60456229365 290.16135047833 205.20456229365 C 289.06135047833 205.00456229365 287.96135047833 204.90456229365 286.86135047833 204.80456229365 C 285.76135047833 204.70456229365 284.56135047833 204.80456229365 283.36135047833 204.80456229365 C 280.96135047833 204.90456229365 278.56135047833 205.30456229365 276.16135047833 205.80456229365 C 273.76135047833 206.40456229365 271.36135047833 207.20456229365 269.06135047833 208.20456229365 C 267.86135047833 208.70456229365 266.66135047833 209.20456229365 265.56135047833 209.80456229365 C 264.56135047833 210.40456229365 263.56135047833 211.00456229365 262.56135047833 211.60456229365 C 265.36135047833 208.90456229365 268.26135047833 206.30456229365 271.26135047833 203.90456229365 C 277.36135047833 198.80456229365 283.76135047833 194.00456229365 290.46135047833 189.60456229365 C 292.86135047833 191.70456229365 295.76135047833 193.50456229365 298.96135047833 194.80456229365 C 300.86135047833 195.60456229365 302.76135047833 196.20456229365 304.86135047833 196.70456229365 C 306.96135047833 197.20456229365 309.16135047833 197.70456229365 311.46135047833 197.90456229365 C 315.96135047833 198.30456229365 320.76135047833 198.50456229365 325.26135047833 198.00456229365 C 329.86135047833 197.70456229365 334.36135047833 196.70456229365 338.86135047833 195.60456229365 C 336.96135047833 192.50456229365 334.36135047833 189.80456229365 331.06135047833 187.60456229365 C 327.76135047833 185.50456229365 323.76135047833 183.90456229365 319.06135047833 183.10456229365 C 312.26135047833 182.00456229365 304.66135047833 182.80456229365 297.36135047833 185.30456229365 C 297.76135047833 185.00456229365 298.16135047833 184.80456229365 298.66135047833 184.50456229365 L 305.96135047833 180.30456229365 L 313.46135047833 176.50456229365 C 314.66135047833 175.80456229365 315.96135047833 175.30456229365 317.26135047833 174.70456229365 L 321.06135047833 173.00456229365 C 322.36135047833 172.40456229365 323.56135047833 171.80456229365 324.86135047833 171.30456229365 L 328.76135047833 169.80456229365 L 328.26135047833 168.60456229365 C 330.26135047833 171.60456229365 332.96135047833 174.30456229365 336.26135047833 176.50456229365 C 339.56135047833 178.80456229365 343.46135047833 180.80456229365 347.76135047833 182.10456229365 C 356.56135047833 185.20456229365 365.76135047833 185.90456229365 375.06135047833 185.50456229365 C 372.26135047833 179.10456229365 366.76135047833 172.90456229365 357.86135047833 169.50456229365 Z"/><path fill="#252725" transform="matrix(1.2169915532920448 0 0 1.2169915532920448 0.2894547820338894 -5.902170249543614)" d="M 619.86135047833 445.80456229365 C 617.76135047833 447.30456229365 615.76135047833 449.00456229365 613.86135047833 450.80456229365 C 611.86135047833 452.60456229365 609.96135047833 454.40456229365 608.16135047833 456.40456229365 C 606.46135047833 458.30456229365 604.76135047833 460.20456229365 603.06135047833 462.20456229365 C 603.76135047833 460.90456229365 604.46135047833 459.60456229365 605.06135047833 458.30456229365 C 609.86135047833 448.60456229365 613.96135047833 438.50456229365 617.26135047833 428.10456229365 C 620.46135047833 428.20456229365 623.86135047833 427.70456229365 627.36135047833 426.30456229365 C 629.36135047833 425.50456229365 631.26135047833 424.50456229365 633.16135047833 423.10456229365 C 635.06135047833 421.80456229365 636.96135047833 420.20456229365 638.86135047833 418.30456229365 C 646.26135047833 410.70456229365 651.86135047833 399.50456229365 654.06135047833 387.20456229365 C 650.46135047833 387.70456229365 646.76135047833 389.20456229365 643.16135047833 391.50456229365 C 641.36135047833 392.60456229365 639.66135047833 394.00456229365 637.86135047833 395.60456229365 C 636.06135047833 397.10456229365 634.26135047833 398.90456229365 632.56135047833 400.80456229365 C 631.66135047833 401.80456229365 630.86135047833 402.80456229365 630.06135047833 403.80456229365 C 629.26135047833 404.80456229365 628.46135047833 405.90456229365 627.66135047833 406.90456229365 C 626.06135047833 409.00456229365 624.66135047833 411.30456229365 623.26135047833 413.60456229365 C 621.86135047833 415.90456229365 620.56135047833 418.20456229365 619.36135047833 420.60456229365 C 621.96135047833 411.30456229365 624.06135047833 401.70456229365 625.36135047833 392.10456229365 C 625.76135047833 389.40456229365 626.06135047833 386.70456229365 626.36135047833 384.10456229365 C 629.56135047833 383.50456229365 632.66135047833 382.30456229365 635.76135047833 380.20456229365 C 639.16135047833 377.80456229365 642.66135047833 374.50456229365 645.36135047833 369.90456229365 C 651.16135047833 360.90456229365 653.96135047833 348.80456229365 653.66135047833 336.30456229365 C 650.26135047833 337.60456229365 647.06135047833 339.80456229365 643.96135047833 342.80456229365 C 642.46135047833 344.30456229365 640.96135047833 346.00456229365 639.56135047833 347.90456229365 C 638.16135047833 349.80456229365 636.96135047833 351.90456229365 635.56135047833 354.10456229365 C 631.86135047833 360.70456229365 628.96135047833 368.10456229365 626.96135047833 375.90456229365 C 627.26135047833 369.80456229365 627.36135047833 363.60456229365 627.26135047833 357.50456229365 C 627.06135047833 351.40456229365 626.66135047833 345.20456229365 625.96135047833 339.10456229365 C 628.96135047833 337.90456229365 631.76135047833 336.00456229365 634.36135047833 333.30456229365 C 637.36135047833 330.30456229365 639.76135047833 326.30456229365 641.56135047833 321.20456229365 C 642.06135047833 319.90456229365 642.46135047833 318.60456229365 642.86135047833 317.30456229365 C 643.26135047833 316.00456229365 643.46135047833 314.60456229365 643.76135047833 313.20456229365 C 644.26135047833 310.40456229365 644.56135047833 307.50456229365 644.66135047833 304.60456229365 C 644.66135047833 298.70456229365 644.16135047833 292.50456229365 642.56135047833 286.50456229365 C 639.46135047833 288.50456229365 636.76135047833 291.30456229365 634.56135047833 294.90456229365 C 632.26135047833 298.50456229365 630.26135047833 302.80456229365 628.76135047833 307.70456229365 C 628.06135047833 310.20456229365 627.26135047833 312.70456229365 626.76135047833 315.30456229365 C 626.26135047833 317.90456229365 625.96135047833 320.50456229365 625.56135047833 323.20456229365 C 625.26135047833 325.70456229365 625.06135047833 328.30456229365 624.96135047833 330.90456229365 C 624.56135047833 328.20456229365 624.06135047833 325.50456229365 623.56135047833 322.80456229365 C 621.66135047833 313.40456229365 619.16135047833 304.20456229365 616.06135047833 295.10456229365 C 618.76135047833 293.30456229365 621.16135047833 290.80456229365 623.06135047833 287.60456229365 C 625.16135047833 284.00456229365 626.76135047833 279.60456229365 627.56135047833 274.30456229365 C 628.96135047833 263.80456229365 626.66135047833 251.40456229365 621.06135047833 240.20456229365 C 618.46135047833 242.80456229365 616.36135047833 246.20456229365 614.96135047833 250.20456229365 C 614.26135047833 252.20456229365 613.66135047833 254.30456229365 613.16135047833 256.60456229365 C 612.66135047833 258.90456229365 612.26135047833 261.40456229365 612.06135047833 263.90456229365 C 611.76135047833 269.00456229365 611.66135047833 274.40456229365 612.36135047833 279.70456229365 C 612.66135047833 282.20456229365 612.86135047833 284.80456229365 613.36135047833 287.40456229365 C 609.46135047833 277.20456229365 604.66135047833 267.40456229365 599.26135047833 257.90456229365 C 598.56135047833 256.70456229365 597.76135047833 255.50456229365 597.06135047833 254.30456229365 C 599.26135047833 251.90456229365 601.06135047833 249.00456229365 602.26135047833 245.50456229365 C 603.56135047833 241.50456229365 604.26135047833 236.80456229365 603.76135047833 231.50456229365 C 603.06135047833 220.80456229365 597.96135047833 209.40456229365 590.16135047833 199.60456229365 C 588.16135047833 202.70456229365 586.96135047833 206.40456229365 586.36135047833 210.60456229365 C 585.66135047833 214.90456229365 585.76135047833 219.50456229365 586.46135047833 224.60456229365 C 587.46135047833 232.30456229365 589.66135047833 240.00456229365 592.76135047833 247.50456229365 C 588.66135047833 241.20456229365 584.16135047833 235.10456229365 579.46135047833 229.30456229365 C 576.36135047833 225.60456229365 573.16135047833 222.00456229365 569.76135047833 218.50456229365 C 571.46135047833 215.70456229365 572.56135047833 212.50456229365 573.06135047833 208.80456229365 C 573.56135047833 204.60456229365 573.06135047833 200.00456229365 571.56135047833 194.80456229365 C 568.46135047833 184.70456229365 561.26135047833 174.30456229365 551.56135047833 166.50456229365 C 550.26135047833 169.90456229365 549.76135047833 173.90456229365 550.06135047833 178.10456229365 C 550.16135047833 180.20456229365 550.56135047833 182.40456229365 551.06135047833 184.70456229365 C 551.56135047833 187.00456229365 552.26135047833 189.40456229365 553.16135047833 191.80456229365 C 554.96135047833 196.60456229365 557.16135047833 201.50456229365 559.96135047833 206.10456229365 C 561.26135047833 208.40456229365 562.66135047833 210.60456229365 564.16135047833 212.80456229365 C 561.26135047833 209.90456229365 558.26135047833 207.10456229365 555.16135047833 204.40456229365 C 548.86135047833 199.00456229365 542.36135047833 193.90456229365 535.56135047833 189.20456229365 C 536.56135047833 186.10456229365 537.06135047833 182.80456229365 536.66135047833 179.10456229365 C 536.26135047833 175.00456229365 534.96135047833 170.30456229365 532.26135047833 165.70456229365 C 530.96135047833 163.40456229365 529.46135047833 161.10456229365 527.66135047833 158.80456229365 C 525.86135047833 156.70456229365 523.86135047833 154.60456229365 521.66135047833 152.50456229365 C 519.56135047833 150.40456229365 517.06135047833 148.70456229365 514.56135047833 146.90456229365 C 512.06135047833 145.20456229365 509.36135047833 143.50456229365 506.56135047833 142.20456229365 C 505.56135047833 149.40456229365 508.06135047833 157.80456229365 513.56135047833 166.50456229365 C 517.66135047833 172.90456229365 522.76135047833 179.00456229365 528.56135047833 184.50456229365 C 528.06135047833 184.20456229365 527.56135047833 183.90456229365 527.16135047833 183.60456229365 C 517.26135047833 177.60456229365 506.86135047833 172.30456229365 496.16135047833 167.90456229365 L 495.66135047833 169.10456229365 C 496.86135047833 162.00456229365 494.66135047833 153.60456229365 487.56135047833 145.50456229365 C 485.86135047833 143.40456229365 483.76135047833 141.60456229365 481.56135047833 139.80456229365 C 479.36135047833 138.10456229365 476.96135047833 136.30456229365 474.46135047833 134.90456229365 C 471.86135047833 133.50456229365 469.16135047833 132.20456229365 466.36135047833 131.00456229365 C 463.56135047833 129.80456229365 460.56135047833 129.00456229365 457.56135047833 128.10456229365 C 457.86135047833 131.70456229365 459.06135047833 135.50456229365 461.06135047833 139.20456229365 C 462.06135047833 141.00456229365 463.26135047833 142.90456229365 464.76135047833 144.80456229365 C 466.16135047833 146.70456229365 467.76135047833 148.50456229365 469.66135047833 150.40456229365 C 476.86135047833 157.90456229365 486.06135047833 163.90456229365 495.76135047833 169.00456229365 L 495.76135047833 169.00456229365 C 493.16135047833 168.30456229365 490.46135047833 167.60456229365 487.86135047833 167.20456229365 C 485.16135047833 166.90456229365 482.56135047833 166.70456229365 479.96135047833 166.60456229365 C 477.36135047833 166.50456229365 474.76135047833 166.90456229365 472.26135047833 167.30456229365 C 469.76135047833 167.70456229365 467.36135047833 168.30456229365 465.16135047833 169.20456229365 C 462.86135047833 170.10456229365 460.86135047833 171.10456229365 458.96135047833 172.20456229365 C 457.16135047833 173.30456229365 455.46135047833 174.60456229365 454.06135047833 176.00456229365 C 451.16135047833 178.80456229365 449.16135047833 182.00456229365 447.96135047833 185.40456229365 C 450.36135047833 185.60456229365 452.66135047833 185.50456229365 455.06135047833 185.50456229365 C 457.36135047833 185.50456229365 459.76135047833 185.40456229365 462.16135047833 185.10456229365 C 464.56135047833 184.80456229365 466.76135047833 184.60456229365 469.16135047833 184.10456229365 C 471.46135047833 183.60456229365 473.76135047833 183.00456229365 475.96135047833 182.30456229365 C 484.86135047833 179.40456229365 491.86135047833 175.00456229365 495.96135047833 169.00456229365 L 495.46135047833 170.20456229365 C 506.06135047833 174.50456229365 516.36135047833 179.70456229365 526.06135047833 185.70456229365 C 526.56135047833 186.00456229365 527.06135047833 186.30456229365 527.56135047833 186.70456229365 C 520.06135047833 183.90456229365 512.36135047833 182.90456229365 505.26135047833 183.90456229365 C 495.56135047833 185.30456229365 488.86135047833 189.90456229365 484.96135047833 196.00456229365 C 487.26135047833 196.60456229365 489.56135047833 197.20456229365 491.86135047833 197.70456229365 C 494.16135047833 198.20456229365 496.56135047833 198.40456229365 498.86135047833 198.80456229365 C 501.16135047833 199.10456229365 503.56135047833 199.20456229365 505.96135047833 199.20456229365 C 508.26135047833 199.30456229365 510.66135047833 199.20456229365 512.96135047833 199.00456229365 C 517.66135047833 198.50456229365 521.86135047833 197.70456229365 525.66135047833 196.20456229365 C 528.96135047833 194.90456229365 531.96135047833 193.20456229365 534.36135047833 191.10456229365 C 541.16135047833 195.70456229365 547.56135047833 200.80456229365 553.76135047833 206.10456229365 C 556.66135047833 208.70456229365 559.56135047833 211.30456229365 562.36135047833 214.10456229365 C 560.26135047833 212.80456229365 558.06135047833 211.60456229365 555.96135047833 210.60456229365 C 551.06135047833 208.60456229365 546.26135047833 207.10456229365 541.36135047833 206.80456229365 C 538.96135047833 206.60456229365 536.66135047833 206.70456229365 534.56135047833 206.90456229365 C 532.36135047833 207.20456229365 530.36135047833 207.70456229365 528.46135047833 208.40456229365 C 524.66135047833 209.70456229365 521.56135047833 211.80456229365 518.96135047833 214.30456229365 C 527.36135047833 218.70456229365 536.26135047833 222.10456229365 545.66135047833 223.10456229365 C 550.26135047833 223.70456229365 554.66135047833 223.60456229365 558.66135047833 223.00456229365 C 562.16135047833 222.50456229365 565.36135047833 221.40456229365 568.16135047833 219.90456229365 C 571.46135047833 223.40456229365 574.66135047833 226.90456229365 577.76135047833 230.60456229365 C 582.36135047833 236.20456229365 586.66135047833 242.20456229365 590.76135047833 248.20456229365 C 585.16135047833 242.70456229365 578.56135047833 238.60456229365 571.86135047833 236.60456229365 C 567.16135047833 235.20456229365 562.76135047833 234.90456229365 558.86135047833 235.40456229365 C 554.96135047833 235.90456229365 551.36135047833 237.30456229365 548.26135047833 239.20456229365 C 555.46135047833 245.40456229365 563.66135047833 250.30456229365 572.46135047833 253.50456229365 C 576.96135047833 255.00456229365 581.16135047833 256.00456229365 585.16135047833 256.20456229365 C 588.66135047833 256.40456229365 592.06135047833 256.00456229365 595.16135047833 255.20456229365 C 595.86135047833 256.40456229365 596.66135047833 257.60456229365 597.36135047833 258.80456229365 C 602.76135047833 268.10456229365 607.46135047833 277.80456229365 611.26135047833 287.90456229365 C 609.86135047833 285.80456229365 608.46135047833 283.70456229365 606.76135047833 281.90456229365 C 603.26135047833 278.00456229365 599.46135047833 274.70456229365 595.06135047833 272.40456229365 C 592.96135047833 271.20456229365 590.86135047833 270.30456229365 588.76135047833 269.70456229365 C 586.66135047833 269.10456229365 584.56135047833 268.70456229365 582.56135047833 268.50456229365 C 578.56135047833 268.20456229365 574.86135047833 268.70456229365 571.56135047833 269.90456229365 C 577.26135047833 277.40456229365 584.06135047833 284.10456229365 592.16135047833 289.00456229365 C 596.06135047833 291.50456229365 600.06135047833 293.30456229365 604.06135047833 294.30456229365 C 607.46135047833 295.30456229365 610.76135047833 295.70456229365 613.96135047833 295.50456229365 C 616.96135047833 304.50456229365 619.46135047833 313.60456229365 621.36135047833 322.90456229365 C 621.86135047833 325.50456229365 622.36135047833 328.20456229365 622.76135047833 330.90456229365 C 621.86135047833 328.50456229365 620.76135047833 326.20456229365 619.56135047833 324.00456229365 C 618.36135047833 321.70456229365 616.86135047833 319.60456229365 615.26135047833 317.60456229365 C 613.66135047833 315.60456229365 612.06135047833 313.80456229365 610.16135047833 312.20456229365 C 606.46135047833 309.00456229365 602.66135047833 306.90456229365 598.86135047833 305.70456229365 C 594.96135047833 304.50456229365 591.26135047833 304.30456229365 587.66135047833 304.80456229365 C 589.76135047833 309.10456229365 591.86135047833 313.20456229365 594.66135047833 317.10456229365 C 595.96135047833 319.10456229365 597.36135047833 320.90456229365 598.86135047833 322.70456229365 C 599.66135047833 323.60456229365 600.46135047833 324.50456229365 601.26135047833 325.30456229365 C 602.06135047833 326.20456229365 602.86135047833 327.00456229365 603.66135047833 327.80456229365 C 605.36135047833 329.40456229365 607.06135047833 330.90456229365 608.86135047833 332.20456229365 C 610.66135047833 333.50456229365 612.36135047833 334.60456229365 614.16135047833 335.60456229365 C 617.26135047833 337.30456229365 620.46135047833 338.40456229365 623.66135047833 338.90456229365 C 624.36135047833 344.90456229365 624.76135047833 351.00456229365 624.96135047833 357.00456229365 C 625.16135047833 363.10456229365 625.06135047833 369.20456229365 624.66135047833 375.30456229365 C 623.46135047833 367.40456229365 620.66135047833 360.10456229365 616.46135047833 354.40456229365 C 615.06135047833 352.40456229365 613.46135047833 350.80456229365 611.86135047833 349.30456229365 C 610.26135047833 347.80456229365 608.56135047833 346.60456229365 606.86135047833 345.60456229365 C 603.46135047833 343.60456229365 599.76135047833 342.60456229365 596.16135047833 342.30456229365 C 596.76135047833 344.60456229365 597.26135047833 346.90456229365 597.96135047833 349.20456229365 C 598.66135047833 351.50456229365 599.56135047833 353.70456229365 600.36135047833 355.90456229365 C 601.26135047833 358.10456229365 602.26135047833 360.20456229365 603.36135047833 362.30456229365 C 604.46135047833 364.40456229365 605.56135047833 366.40456229365 606.96135047833 368.30456229365 C 609.66135047833 372.20456229365 612.36135047833 375.50456229365 615.56135047833 378.10456229365 C 618.26135047833 380.40456229365 621.26135047833 382.10456229365 624.16135047833 383.30456229365 C 623.86135047833 386.00456229365 623.56135047833 388.60456229365 623.26135047833 391.20456229365 C 621.96135047833 400.50456229365 619.96135047833 409.70456229365 617.46135047833 418.80456229365 C 617.56135047833 416.30456229365 617.56135047833 413.90456229365 617.46135047833 411.50456229365 C 617.26135047833 408.90456229365 616.76135047833 406.30456229365 616.26135047833 403.90456229365 C 615.96135047833 402.70456229365 615.66135047833 401.50456229365 615.26135047833 400.30456229365 C 614.86135047833 399.10456229365 614.36135047833 398.00456229365 613.86135047833 396.90456229365 C 612.86135047833 394.70456229365 611.66135047833 392.70456229365 610.46135047833 390.90456229365 C 609.16135047833 389.10456229365 607.76135047833 387.60456229365 606.26135047833 386.30456229365 C 603.26135047833 383.60456229365 599.96135047833 381.90456229365 596.56135047833 380.80456229365 C 596.66135047833 390.30456229365 598.06135047833 399.70456229365 601.56135047833 408.50456229365 C 602.36135047833 410.70456229365 603.36135047833 412.70456229365 604.46135047833 414.60456229365 C 605.56135047833 416.50456229365 606.66135047833 418.30456229365 607.86135047833 419.90456229365 C 609.96135047833 422.70456229365 612.46135047833 425.00456229365 615.16135047833 426.80456229365 C 611.86135047833 437.00456229365 607.86135047833 447.00456229365 603.16135047833 456.60456229365 C 602.56135047833 457.90456229365 601.86135047833 459.10456229365 601.16135047833 460.40456229365 C 603.36135047833 452.80456229365 603.86135047833 445.00456229365 602.26135047833 438.00456229365 C 600.16135047833 428.50456229365 595.06135047833 422.10456229365 588.66135047833 418.60456229365 C 586.66135047833 427.90456229365 586.26135047833 437.50456229365 587.76135047833 446.80456229365 C 589.16135047833 455.50456229365 592.46135047833 462.60456229365 597.26135047833 467.50456229365 C 591.26135047833 478.00456229365 584.36135047833 488.00456229365 576.66135047833 497.30456229365 C 580.26135047833 490.30456229365 582.26135047833 482.80456229365 582.26135047833 475.80456229365 C 582.16135047833 470.90456229365 581.26135047833 466.70456229365 579.66135047833 463.00456229365 C 577.96135047833 459.30456229365 575.76135047833 456.30456229365 572.96135047833 454.00456229365 C 571.06135047833 458.40456229365 569.46135047833 462.80456229365 568.36135047833 467.50456229365 C 567.76135047833 469.80456229365 567.26135047833 472.10456229365 566.96135047833 474.40456229365 C 566.66135047833 476.80456229365 566.36135047833 479.00456229365 566.26135047833 481.40456229365 C 566.16135047833 486.10456229365 566.46135047833 490.40456229365 567.36135047833 494.40456229365 C 568.16135047833 497.80456229365 569.56135047833 500.90456229365 571.26135047833 503.60456229365 C 568.66135047833 506.50456229365 565.96135047833 509.40456229365 563.16135047833 512.20456229365 C 557.36135047833 518.00456229365 551.26135047833 523.40456229365 544.86135047833 528.50456229365 C 549.86135047833 522.40456229365 553.36135047833 515.50456229365 554.86135047833 508.50456229365 C 555.36135047833 506.10456229365 555.56135047833 503.80456229365 555.56135047833 501.70456229365 C 555.56135047833 499.50456229365 555.36135047833 497.40456229365 554.86135047833 495.50456229365 C 554.06135047833 491.60456229365 552.36135047833 488.20456229365 550.26135047833 485.40456229365 C 544.76135047833 493.20456229365 540.36135047833 501.60456229365 538.06135047833 510.70456229365 C 537.46135047833 513.00456229365 537.06135047833 515.20456229365 536.76135047833 517.40456229365 C 536.56135047833 519.60456229365 536.36135047833 521.60456229365 536.46135047833 523.60456229365 C 536.56135047833 527.10456229365 537.16135047833 530.50456229365 538.36135047833 533.50456229365 C 537.96135047833 533.80456229365 537.46135047833 534.20456229365 537.06135047833 534.50456229365 C 527.76135047833 541.20456229365 517.86135047833 547.00456229365 507.56135047833 552.00456229365 C 507.46135047833 552.10456229365 507.26135047833 552.10456229365 507.16135047833 552.20456229365 C 509.16135047833 550.60456229365 511.06135047833 549.00456229365 512.76135047833 547.30456229365 C 514.56135047833 545.40456229365 516.16135047833 543.40456229365 517.66135047833 541.30456229365 C 518.06135047833 540.80456229365 518.36135047833 540.30456229365 518.66135047833 539.80456229365 C 518.96135047833 539.30456229365 519.26135047833 538.70456229365 519.56135047833 538.20456229365 C 520.16135047833 537.10456229365 520.66135047833 536.00456229365 521.16135047833 534.90456229365 C 523.16135047833 530.50456229365 523.96135047833 526.20456229365 523.96135047833 522.20456229365 C 523.96135047833 518.20456229365 523.16135047833 514.60456229365 521.56135047833 511.30456229365 C 514.56135047833 517.60456229365 508.56135047833 525.00456229365 504.36135047833 533.40456229365 C 502.16135047833 537.50456229365 500.76135047833 541.70456229365 499.96135047833 545.60456229365 C 499.26135047833 549.00456229365 499.16135047833 552.40456229365 499.56135047833 555.60456229365 C 481.16135047833 563.50456229365 461.46135047833 568.50456229365 441.46135047833 570.20456229365 L 441.66135047833 572.70456229365 C 461.96135047833 570.90456229365 481.86135047833 565.90456229365 500.56135047833 557.90456229365 C 502.56135047833 560.40456229365 505.16135047833 562.60456229365 508.56135047833 564.30456229365 C 512.36135047833 566.20456229365 516.86135047833 567.30456229365 522.26135047833 567.70456229365 C 532.96135047833 568.20456229365 545.06135047833 564.80456229365 555.76135047833 558.30456229365 C 552.96135047833 556.00456229365 549.46135047833 554.20456229365 545.36135047833 553.00456229365 C 541.26135047833 551.80456229365 536.66135047833 551.40456229365 531.36135047833 551.30456229365 C 530.06135047833 551.30456229365 528.76135047833 551.30456229365 527.46135047833 551.40456229365 C 526.16135047833 551.50456229365 524.86135047833 551.60456229365 523.56135047833 551.70456229365 C 520.96135047833 551.90456229365 518.26135047833 552.30456229365 515.66135047833 552.80456229365 C 513.06135047833 553.20456229365 510.56135047833 553.80456229365 508.06135047833 554.40456229365 C 508.26135047833 554.30456229365 508.36135047833 554.30456229365 508.56135047833 554.20456229365 C 519.06135047833 549.20456229365 529.06135047833 543.20456229365 538.46135047833 536.50456229365 C 538.86135047833 536.20456229365 539.36135047833 535.80456229365 539.76135047833 535.50456229365 C 542.26135047833 537.50456229365 545.36135047833 539.00456229365 548.86135047833 539.90456229365 C 552.96135047833 541.00456229365 557.66135047833 541.10456229365 562.96135047833 540.20456229365 C 573.46135047833 538.40456229365 584.56135047833 532.60456229365 593.56135047833 524.00456229365 C 590.36135047833 522.30456229365 586.46135047833 521.30456229365 582.26135047833 521.10456229365 C 580.16135047833 521.00456229365 577.96135047833 521.10456229365 575.56135047833 521.30456229365 C 573.16135047833 521.50456229365 570.76135047833 521.90456229365 568.26135047833 522.40456229365 C 560.76135047833 524.00456229365 553.36135047833 527.00456229365 546.16135047833 530.60456229365 C 552.76135047833 525.40456229365 558.96135047833 519.80456229365 564.86135047833 513.90456229365 C 567.66135047833 511.10456229365 570.36135047833 508.20456229365 572.96135047833 505.20456229365 C 575.86135047833 506.60456229365 579.16135047833 507.50456229365 582.86135047833 507.60456229365 C 587.06135047833 507.70456229365 591.76135047833 507.00456229365 596.66135047833 505.00456229365 C 599.16135047833 504.00456229365 601.66135047833 502.90456229365 604.06135047833 501.30456229365 C 606.46135047833 499.80456229365 608.76135047833 498.10456229365 611.06135047833 496.30456229365 C 615.46135047833 492.50456229365 619.76135047833 487.90456229365 623.16135047833 482.80456229365 C 619.66135047833 481.80456229365 615.66135047833 481.60456229365 611.56135047833 482.30456229365 C 607.36135047833 482.90456229365 602.76135047833 484.30456229365 598.16135047833 486.50456229365 C 591.06135047833 489.70456229365 584.36135047833 494.10456229365 578.16135047833 499.20456229365 C 586.06135047833 489.70456229365 593.06135047833 479.50456229365 599.26135047833 468.80456229365 C 605.96135047833 470.50456229365 613.96135047833 469.20456229365 622.46135047833 463.70456229365 C 631.36135047833 457.90456229365 638.96135047833 448.00456229365 643.76135047833 436.50456229365 C 636.36135047833 436.60456229365 628.16135047833 439.70456229365 619.86135047833 445.80456229365 Z"/><path fill="#252725" transform="matrix(1.2169915532920448 0 0 1.2169915532920448 0.2894547820338894 -5.902170249543614)" d="M 410.46135047833 181.90456229365 C 317.16135047833 181.90456229365 241.46135047833 257.60456229365 241.46135047833 350.90456229365 C 241.46135047833 444.20456229365 317.16135047833 519.90456229365 410.46135047833 519.90456229365 C 503.76135047833 519.90456229365 579.46135047833 444.20456229365 579.46135047833 350.90456229365 C 579.46135047833 257.60456229365 503.76135047833 181.90456229365 410.46135047833 181.90456229365 Z M 484.16135047833 484.40456229365 L 478.06135047833 466.50456229365 C 478.06135047833 466.50456229365 478.06135047833 466.50456229365 478.06135047833 466.40456229365 C 476.96135047833 466.90456229365 475.76135047833 467.20456229365 474.46135047833 467.20456229365 L 474.06135047833 466.80456229365 C 475.76135047833 465.30456229365 477.06135047833 463.40456229365 477.86135047833 461.40456229365 C 478.66135047833 459.40456229365 478.96135047833 457.10456229365 478.76135047833 454.90456229365 C 478.56135047833 452.70456229365 477.86135047833 450.60456229365 476.66135047833 448.70456229365 C 475.46135047833 446.90456229365 473.86135047833 445.30456229365 471.96135047833 444.10456229365 L 472.26135047833 443.60456229365 C 473.56135047833 443.30456229365 474.96135047833 443.40456229365 476.26135047833 443.70456229365 C 476.46135047833 441.00456229365 477.26135047833 438.00456229365 477.56135047833 436.10456229365 C 480.06135047833 422.70456229365 480.26135047833 409.00456229365 480.96135047833 395.40456229365 C 480.96135047833 395.40456229365 490.46135047833 353.80456229365 486.36135047833 345.20456229365 C 508.76135047833 344.30456229365 525.06135047833 325.10456229365 525.06135047833 325.10456229365 C 525.06135047833 325.10456229365 546.56135047833 306.20456229365 544.56135047833 298.70456229365 C 542.76135047833 292.00456229365 533.76135047833 289.10456229365 529.06135047833 284.80456229365 C 526.66135047833 282.50456229365 524.76135047833 279.70456229365 522.36135047833 277.40456229365 C 519.06135047833 274.30456229365 515.06135047833 272.70456229365 510.96135047833 270.90456229365 C 506.86135047833 269.10456229365 503.06135047833 266.70456229365 499.26135047833 264.50456229365 C 498.16135047833 263.90456229365 488.96135047833 257.90456229365 484.76135047833 256.60456229365 L 484.86135047833 256.30456229365 C 484.86135047833 256.30456229365 480.66135047833 255.50456229365 478.86135047833 255.20456229365 C 472.76135047833 253.70456229365 461.66135047833 255.50456229365 461.66135047833 255.50456229365 C 461.66135047833 255.50456229365 449.86135047833 255.90456229365 449.86135047833 259.00456229365 C 449.86135047833 262.00456229365 450.26135047833 275.00456229365 451.76135047833 276.40456229365 C 453.26135047833 277.80456229365 457.66135047833 274.40456229365 457.66135047833 274.40456229365 C 457.66135047833 274.40456229365 451.96135047833 280.90456229365 454.36135047833 282.60456229365 C 456.76135047833 284.30456229365 463.36135047833 278.30456229365 463.36135047833 278.30456229365 C 463.36135047833 278.30456229365 473.76135047833 275.40456229365 476.46135047833 270.30456229365 C 478.86135047833 271.30456229365 483.66135047833 273.70456229365 486.76135047833 277.50456229365 C 488.86135047833 280.10456229365 493.36135047833 285.50456229365 497.36135047833 290.30456229365 C 499.26135047833 292.60456229365 501.86135047833 294.40456229365 504.56135047833 295.70456229365 C 504.96135047833 295.90456229365 505.36135047833 296.10456229365 505.76135047833 296.30456229365 C 508.96135047833 298.10456229365 511.86135047833 300.50456229365 513.56135047833 303.90456229365 L 513.26135047833 304.40456229365 C 508.56135047833 301.90456229365 503.56135047833 300.10456229365 498.26135047833 299.50456229365 C 496.46135047833 299.60456229365 494.66135047833 299.90456229365 492.86135047833 300.20456229365 C 489.76135047833 300.70456229365 486.66135047833 301.50456229365 483.86135047833 302.90456229365 C 481.86135047833 303.90456229365 480.86135047833 305.30456229365 479.66135047833 306.50456229365 C 482.56135047833 308.10456229365 485.16135047833 310.30456229365 487.06135047833 313.00456229365 L 486.76135047833 313.50456229365 C 482.26135047833 310.40456229365 476.96135047833 308.60456229365 471.56135047833 308.20456229365 C 468.86135047833 308.00456229365 466.16135047833 308.30456229365 463.46135047833 308.80456229365 C 460.86135047833 309.40456229365 458.26135047833 310.20456229365 455.86135047833 311.50456229365 C 453.46135047833 312.80456229365 451.16135047833 314.20456229365 449.26135047833 316.10456229365 C 448.26135047833 317.00456229365 447.36135047833 318.00456229365 446.46135047833 319.00456229365 C 445.66135047833 320.10456229365 444.76135047833 321.10456229365 444.16135047833 322.30456229365 C 441.26135047833 326.90456229365 439.76135047833 332.30456229365 439.66135047833 337.70456229365 L 439.06135047833 337.70456229365 C 437.96135047833 334.50456229365 437.66135047833 330.90456229365 438.06135047833 327.40456229365 C 433.16135047833 327.80456229365 417.36135047833 325.10456229365 412.96135047833 322.90456229365 C 412.76135047833 322.80456229365 412.56135047833 322.60456229365 412.46135047833 322.50456229365 C 411.46135047833 321.80456229365 404.16135047833 316.30456229365 404.46135047833 315.30456229365 C 404.46135047833 315.40456229365 404.36135047833 315.60456229365 404.26135047833 315.80456229365 C 398.96135047833 303.00456229365 396.56135047833 296.80456229365 394.66135047833 292.60456229365 C 392.76135047833 288.30456229365 390.76135047833 284.30456229365 387.66135047833 280.70456229365 C 384.66135047833 277.40456229365 381.16135047833 274.50456229365 377.16135047833 272.40456229365 C 373.66135047833 270.60456229365 369.86135047833 269.40456229365 366.06135047833 268.50456229365 C 358.26135047833 266.70456229365 350.26135047833 266.20456229365 342.96135047833 269.90456229365 C 336.46135047833 273.10456229365 331.46135047833 278.70456229365 327.86135047833 284.90456229365 C 325.36135047833 288.80456229365 321.86135047833 295.00456229365 324.76135047833 299.60456229365 C 326.46135047833 302.30456229365 329.76135047833 303.30456229365 332.66135047833 303.90456229365 C 334.06135047833 304.20456229365 335.86135047833 304.20456229365 336.46135047833 305.80456229365 C 337.16135047833 307.60456229365 336.66135047833 309.70456229365 336.76135047833 311.60456229365 C 336.86135047833 313.90456229365 337.16135047833 320.90456229365 340.66135047833 320.60456229365 C 341.76135047833 320.50456229365 344.06135047833 320.40456229365 343.96135047833 322.20456229365 C 343.86135047833 323.80456229365 343.06135047833 332.20456229365 343.16135047833 334.50456229365 C 343.26135047833 336.80456229365 351.86135047833 336.50456229365 351.86135047833 336.50456229365 C 351.86135047833 336.50456229365 353.16135047833 338.40456229365 353.16135047833 339.60456229365 C 354.16135047833 341.20456229365 355.96135047833 338.50456229365 356.46135047833 339.60456229365 C 354.26135047833 340.80456229365 355.66135047833 343.40456229365 355.66135047833 343.40456229365 C 355.66135047833 343.40456229365 361.06135047833 343.10456229365 361.76135047833 344.90456229365 C 361.46135047833 346.60456229365 361.46135047833 350.30456229365 364.16135047833 349.90456229365 C 365.76135047833 349.70456229365 367.66135047833 348.40456229365 369.16135047833 347.70456229365 C 370.86135047833 346.90456229365 372.56135047833 346.00456229365 374.26135047833 345.20456229365 C 374.86135047833 344.90456229365 379.76135047833 341.80456229365 380.26135047833 342.10456229365 C 380.26135047833 342.10456229365 381.16135047833 344.00456229365 382.06135047833 345.90456229365 C 382.06135047833 345.90456229365 377.46135047833 355.80456229365 368.66135047833 354.30456229365 C 365.96135047833 353.80456229365 363.26135047833 354.40456229365 360.56135047833 354.90456229365 C 357.96135047833 355.50456229365 355.36135047833 356.30456229365 352.96135047833 357.60456229365 C 350.56135047833 358.90456229365 348.26135047833 360.30456229365 346.36135047833 362.20456229365 C 345.36135047833 363.10456229365 344.46135047833 364.10456229365 343.56135047833 365.10456229365 C 342.76135047833 366.20456229365 341.86135047833 367.20456229365 341.26135047833 368.40456229365 C 338.36135047833 373.00456229365 336.86135047833 378.40456229365 336.76135047833 383.80456229365 L 336.46135047833 383.80456229365 C 335.16135047833 380.10456229365 334.96135047833 376.00456229365 335.76135047833 372.00456229365 C 330.96135047833 372.30456229365 326.26135047833 373.90456229365 322.46135047833 376.80456229365 C 321.96135047833 377.10456229365 321.56135047833 377.50456229365 321.16135047833 377.90456229365 C 320.56135047833 378.60456229365 320.06135047833 379.40456229365 319.56135047833 380.20456229365 C 317.36135047833 383.40456229365 315.86135047833 387.10456229365 314.86135047833 390.80456229365 L 314.26135047833 390.70456229365 C 313.46135047833 389.60456229365 313.06135047833 388.40456229365 312.76135047833 387.20456229365 C 307.06135047833 376.90456229365 298.06135047833 368.10456229365 302.36135047833 348.40456229365 C 302.46135047833 348.40456229365 302.56135047833 348.50456229365 302.66135047833 348.60456229365 C 308.36135047833 349.60456229365 316.96135047833 342.30456229365 316.96135047833 342.30456229365 C 316.96135047833 342.30456229365 325.56135047833 340.30456229365 325.56135047833 337.30456229365 C 325.56135047833 334.40456229365 316.96135047833 335.40456229365 316.96135047833 335.40456229365 C 316.96135047833 335.40456229365 322.26135047833 333.60456229365 321.96135047833 331.60456229365 C 321.66135047833 329.60456229365 311.16135047833 322.00456229365 308.66135047833 320.20456229365 C 306.16135047833 318.40456229365 299.16135047833 327.90456229365 299.16135047833 327.90456229365 C 299.16135047833 327.90456229365 291.46135047833 336.00456229365 289.26135047833 341.90456229365 C 288.46135047833 343.60456229365 286.76135047833 347.50456229365 286.76135047833 347.50456229365 L 286.86135047833 347.50456229365 C 285.56135047833 353.70456229365 284.66135047833 359.90456229365 283.76135047833 366.10456229365 C 282.36135047833 375.90456229365 281.76135047833 385.80456229365 282.06135047833 395.70456229365 C 282.26135047833 401.30456229365 282.46135047833 407.00456229365 282.66135047833 412.60456229365 C 282.76135047833 416.00456229365 282.06135047833 419.30456229365 285.16135047833 421.60456229365 C 292.56135047833 427.10456229365 300.36135047833 425.10456229365 308.56135047833 423.50456229365 C 310.86135047833 423.00456229365 313.26135047833 422.80456229365 315.66135047833 422.50456229365 C 331.16135047833 420.60456229365 345.86135047833 413.40456229365 358.46135047833 404.40456229365 C 360.06135047833 403.30456229365 367.66135047833 410.00456229365 368.76135047833 410.90456229365 C 373.36135047833 414.40456229365 377.96135047833 418.10456229365 382.56135047833 421.70456229365 C 395.76135047833 432.10456229365 399.46135047833 480.50456229365 391.96135047833 502.20456229365 C 316.56135047833 493.10456229365 257.86135047833 428.80456229365 257.86135047833 350.90456229365 C 257.86135047833 266.80456229365 326.26135047833 198.30456229365 410.46135047833 198.30456229365 C 494.56135047833 198.30456229365 563.06135047833 266.70456229365 563.06135047833 350.90456229365 C 563.06135047833 408.30456229365 531.16135047833 458.40456229365 484.16135047833 484.40456229365 Z"/><path id="text" fill="#3d342e" transform="matrix(1.2601937595657597 0 0 1.2601937595657595 -5.80697284407902 725.9902139908169)" d="M 181.14838341695 75.5573325672 L 181.14838341695 97.4453325672 L 166.26838341695 97.4453325672 L 166.26838341695 37.2533325672 L 206.87638341695 37.2533325672 L 206.87638341695 50.6933325672 L 181.14838341695 50.6933325672 L 181.14838341695 63.0773325672 L 203.32438341695 63.0773325672 L 203.32438341695 75.5573325672 L 181.14838341695 75.5573325672 Z M 232.89238341695 37.2533325672 L 232.89238341695 97.4453325672 L 218.01238341695 97.4453325672 L 218.01238341695 37.2533325672 L 232.89238341695 37.2533325672 Z M 291.16438341695 37.2533325672 L 291.16438341695 50.6933325672 L 274.74838341695 50.6933325672 L 274.74838341695 97.4453325672 L 259.86838341695 97.4453325672 L 259.86838341695 50.6933325672 L 243.45238341695 50.6933325672 L 243.45238341695 37.2533325672 L 291.16438341695 37.2533325672 Z M 341.85238341695 74.9813325672 L 329.66038341695 72.1013325672 C 324.79638341695 70.9493325672 321.48438341695 69.1893325672 319.72438341695 66.8213325672 C 317.96438341695 64.4533325672 317.08438341695 61.0613325672 317.08438341695 56.6453325672 C 317.08438341695 49.6693325672 318.92438341695 44.5333325672 322.60438341695 41.2373325672 C 326.28438341695 37.9413325672 331.99638341695 36.2933325672 339.74038341695 36.2933325672 C 342.94038341695 36.2933325672 345.78838341695 36.4213325672 348.28438341695 36.6773325672 C 350.78038341695 36.9333325672 353.08438341695 37.3813325672 355.19638341695 38.0213325672 L 355.19638341695 51.3653325672 C 350.33238341695 50.5333325672 346.98838341695 50.0533325672 345.16438341695 49.9253325672 C 343.34038341695 49.7973325672 341.43638341695 49.7333325672 339.45238341695 49.7333325672 C 336.76438341695 49.7333325672 334.81238341695 50.1813325672 333.59638341695 51.0773325672 C 332.38038341695 51.9733325672 331.77238341695 53.4773325672 331.77238341695 55.5893325672 C 331.77238341695 56.6133325672 331.96438341695 57.3973325672 332.34838341695 57.9413325672 C 332.73238341695 58.4853325672 333.46838341695 58.8853325672 334.55638341695 59.1413325672 L 346.07638341695 61.8293325672 C 349.40438341695 62.5973325672 351.80438341695 63.3493325672 353.27638341695 64.0853325672 C 354.74838341695 64.8213325672 355.93238341695 65.7653325672 356.82838341695 66.9173325672 C 357.85238341695 68.1333325672 358.60438341695 69.7013325672 359.08438341695 71.6213325672 C 359.56438341695 73.5413325672 359.80438341695 75.8773325672 359.80438341695 78.6293325672 C 359.80438341695 85.6053325672 357.94838341695 90.6453325672 354.23638341695 93.7493325672 C 350.52438341695 96.8533325672 344.76438341695 98.4053325672 336.95638341695 98.4053325672 C 332.98838341695 98.4053325672 329.21238341695 98.1653325672 325.62838341695 97.6853325672 C 322.04438341695 97.2053325672 319.26038341695 96.6133325672 317.27638341695 95.9093325672 L 317.27638341695 81.7973325672 C 319.83638341695 82.6293325672 322.87638341695 83.2853325672 326.39638341695 83.7653325672 C 329.91638341695 84.2453325672 333.43638341695 84.4853325672 336.95638341695 84.4853325672 C 339.77238341695 84.4853325672 341.72438341695 84.1333325672 342.81238341695 83.4293325672 C 343.90038341695 82.7253325672 344.44438341695 81.3173325672 344.44438341695 79.2053325672 C 344.44438341695 77.8613325672 344.26838341695 76.8853325672 343.91638341695 76.2773325672 C 343.56438341695 75.6693325672 342.87638341695 75.2373325672 341.85238341695 74.9813325672 Z M 412.70038341695 83.5253325672 L 412.70038341695 97.4453325672 L 367.86838341695 97.4453325672 L 367.86838341695 83.5253325672 L 394.07638341695 50.6933325672 L 370.65238341695 50.6933325672 L 370.65238341695 37.2533325672 L 410.87638341695 37.2533325672 L 410.87638341695 50.6933325672 L 384.76438341695 83.5253325672 L 412.70038341695 83.5253325672 Z M 449.46838341695 84.4853325672 C 452.02838341695 84.4853325672 454.81238341695 84.2133325672 457.82038341695 83.6693325672 C 460.82838341695 83.1253325672 463.51638341695 82.4053325672 465.88438341695 81.5093325672 L 465.88438341695 94.6613325672 C 462.36438341695 96.0693325672 459.19638341695 97.0453325672 456.38038341695 97.5893325672 C 453.56438341695 98.1333325672 450.62038341695 98.4053325672 447.54838341695 98.4053325672 C 441.98038341695 98.4053325672 437.53238341695 97.7653325672 434.20438341695 96.4853325672 C 430.87638341695 95.2053325672 428.22038341695 93.1573325672 426.23638341695 90.3413325672 C 424.57238341695 87.9093325672 423.34038341695 84.8053325672 422.54038341695 81.0293325672 C 421.74038341695 77.2533325672 421.34038341695 72.6773325672 421.34038341695 67.3013325672 C 421.34038341695 56.5493325672 423.66038341695 48.6933325672 428.30038341695 43.7333325672 C 432.94038341695 38.7733325672 440.31638341695 36.2933325672 450.42838341695 36.2933325672 C 453.37238341695 36.2933325672 455.99638341695 36.3573325672 458.30038341695 36.4853325672 C 460.60438341695 36.6133325672 462.68438341695 36.8373325672 464.54038341695 37.1573325672 L 464.54038341695 50.1173325672 C 462.42838341695 49.9893325672 460.23638341695 49.8933325672 457.96438341695 49.8293325672 C 455.69238341695 49.7653325672 453.18038341695 49.7333325672 450.42838341695 49.7333325672 C 446.90838341695 49.7333325672 444.30038341695 50.0693325672 442.60438341695 50.7413325672 C 440.90838341695 51.4133325672 439.64438341695 52.5813325672 438.81238341695 54.2453325672 C 438.04438341695 55.5253325672 437.50038341695 57.2213325672 437.18038341695 59.3333325672 C 436.86038341695 61.4453325672 436.70038341695 64.1013325672 436.70038341695 67.3013325672 C 436.70038341695 70.3093325672 436.84438341695 72.8213325672 437.13238341695 74.8373325672 C 437.42038341695 76.8533325672 437.88438341695 78.5333325672 438.52438341695 79.8773325672 C 439.35638341695 81.5413325672 440.57238341695 82.7253325672 442.17238341695 83.4293325672 C 443.77238341695 84.1333325672 446.20438341695 84.4853325672 449.46838341695 84.4853325672 Z M 518.87638341695 83.5253325672 L 518.87638341695 97.4453325672 L 474.04438341695 97.4453325672 L 474.04438341695 83.5253325672 L 500.25238341695 50.6933325672 L 476.82838341695 50.6933325672 L 476.82838341695 37.2533325672 L 517.05238341695 37.2533325672 L 517.05238341695 50.6933325672 L 490.94038341695 83.5253325672 L 518.87638341695 83.5253325672 Z M 567.45238341695 37.2533325672 L 582.81238341695 37.2533325672 L 561.78838341695 75.5573325672 L 561.78838341695 97.4453325672 L 546.90838341695 97.4453325672 L 546.90838341695 75.5573325672 L 525.30838341695 37.2533325672 L 542.30038341695 37.2533325672 L 554.39638341695 62.4053325672 L 567.45238341695 37.2533325672 Z M 636.47638341695 37.2533325672 L 636.47638341695 50.6933325672 L 620.06038341695 50.6933325672 L 620.06038341695 97.4453325672 L 605.18038341695 97.4453325672 L 605.18038341695 50.6933325672 L 588.76438341695 50.6933325672 L 588.76438341695 37.2533325672 L 636.47638341695 37.2533325672 Z"/></svg>